<svg width="8" height="20" viewBox="0 0 8 20" fill="none" xmlns="http://www.w3.org/2000/svg">
<path d="M4 13C3.20435 13 2.44129 12.6839 1.87868 12.1213C1.31607 11.5587 1 10.7956 1 10C1 9.20435 1.31607 8.44129 1.87868 7.87868C2.44129 7.31607 6.20435 7.6 7 7.6L7 13H4ZM4 13C3.40666 13 2.82664 13.1759 2.33329 13.5056C1.83994 13.8352 1.45543 14.3038 1.22836 14.8519C1.0013 15.4001 0.94189 16.0033 1.05765 16.5853C1.1734 17.1672 1.45912 17.7018 1.87868 18.1213C2.29824 18.5409 2.83279 18.8266 3.41473 18.9424C3.99667 19.0581 4.59987 18.9987 5.14805 18.7716C5.69623 18.5446 6.16476 18.1601 6.49441 17.6667C6.82405 17.1734 7 16.5933 7 16V1" stroke="#4B4B4B" stroke-width="1.25" stroke-linecap="round" stroke-linejoin="round"/>
</svg>
