<svg xmlns="http://www.w3.org/2000/svg" xmlns:xlink="http://www.w3.org/1999/xlink" viewBox="0,0,256,256" width="19" height="20" ><g fill="#4B4B4B" fill-rule="nonzero" stroke="none" stroke-width="3" stroke-linecap="butt" stroke-linejoin="miter" stroke-miterlimit="10" stroke-dasharray="" stroke-dashoffset="0" font-family="none" font-weight="none" font-size="none" text-anchor="none" style="mix-blend-mode: normal"><g transform="scale(4,4)"><path d="M32,3c-14.78687,0 -27.02765,11.14619 -28.77734,25.4707c-0.05357,0.14465 -0.07296,0.29974 -0.05664,0.45313c-0.10733,1.01148 -0.16602,2.03686 -0.16602,3.07617c0,15.98231 13.01769,29 29,29c15.98231,0 29,-13.01769 29,-29c0,-15.98231 -13.01769,-29 -29,-29zM32,5c14.89769,0 27,12.10231 27,27c0,1.01521 -0.06047,2.01565 -0.16992,3.00195c-5.56331,-1.55387 -10.58872,-2.12272 -15.08398,-1.9668c-1.7166,0.05954 -3.35269,0.22751 -4.91797,0.47852c-0.96221,-2.48184 -2.04948,-5.04249 -3.28516,-7.62695c3.56755,-1.33414 7.01192,-3.07815 10.05859,-5.37109c0.34715,-0.25447 0.49254,-0.70252 0.36096,-1.11234c-0.13159,-0.40982 -0.51063,-0.68948 -0.94104,-0.6943c-0.22529,-0.00251 -0.44483,0.07113 -0.62305,0.20898c-2.91011,2.19016 -6.26265,3.85491 -9.76172,5.12695c-3.04393,-6.04476 -6.89243,-12.11852 -11.7207,-17.46875c2.84019,-1.01672 5.89677,-1.57617 9.08398,-1.57617zM20.93945,7.375c4.83886,5.23746 8.70264,11.28688 11.75977,17.33594c-11.51182,3.6691 -23.81164,3.3634 -27.38672,3.17383c1.40537,-9.16829 7.43604,-16.81952 15.62695,-20.50977zM49.50195,14.44531c-0.29475,0.00231 -0.57347,0.13452 -0.76172,0.36133c-0.47092,0.55103 -0.94911,1.08181 -1.44531,1.57422c-0.3921,0.3894 -0.39429,1.02294 -0.00488,1.41504c0.3894,0.3921 1.02294,0.39429 1.41504,0.00488c0.5498,-0.54559 1.06161,-1.1164 1.55469,-1.69336c0.26131,-0.29587 0.32414,-0.71776 0.16038,-1.07694c-0.16376,-0.35917 -0.52347,-0.58842 -0.9182,-0.58517zM33.61328,26.56836c1.19168,2.48649 2.23993,4.95093 3.17773,7.34961c-4.81552,1.04822 -8.88073,2.90719 -12.19727,5.08984c-6.46714,4.2561 -10.15758,9.57087 -11.66797,12.08789c-4.89411,-4.88864 -7.92578,-11.64139 -7.92578,-19.0957c0,-0.71392 0.03528,-1.41908 0.08984,-2.11914c3.56363,0.22024 16.3662,0.69636 28.52344,-3.3125zM44.41016,34.99609c0.56947,-0.01062 1.14818,-0.00851 1.73633,0.00586c3.73955,0.09138 7.86601,0.71533 12.38281,1.99805c-1.50383,8.0087 -6.54689,14.77441 -13.44336,18.60938c-0.51886,-2.98601 -2.07524,-10.7479 -5.55664,-20.20898c1.54717,-0.23073 3.17243,-0.37243 4.88086,-0.4043zM37.49023,35.76367c3.80459,10.23941 5.35583,18.56166 5.72656,20.79102c-3.41815,1.56628 -7.21478,2.44531 -11.2168,2.44531c-6.71099,0 -12.8485,-2.46249 -17.57422,-6.52344c1.25948,-2.16082 4.8513,-7.57619 11.26758,-11.79883c3.2049,-2.10918 7.10674,-3.9318 11.79688,-4.91406zM11.33594,38.51953c-0.12339,-0.00099 -0.24589,0.02086 -0.36133,0.06445l-1.88086,0.68359c-0.33608,0.12204 -0.5815,0.41414 -0.64378,0.76622c-0.06228,0.35208 0.06804,0.71065 0.34185,0.94058c0.27381,0.22993 0.64951,0.29628 0.98552,0.17406l1.88086,-0.68555c0.45787,-0.16125 0.73383,-0.62802 0.65441,-1.10692c-0.07941,-0.4789 -0.49126,-0.83161 -0.97668,-0.83644zM13.5293,42.97461c-0.19076,0.0038 -0.37644,0.06208 -0.53516,0.16797l-1.67774,1.08984c-0.2998,0.19464 -0.47297,0.53445 -0.45425,0.89141c0.01872,0.35695 0.22649,0.67679 0.54501,0.839c0.31852,0.16221 0.69939,0.14213 0.99909,-0.05267l1.67578,-1.08984c0.37962,-0.23955 0.55312,-0.70268 0.42435,-1.1327c-0.12878,-0.43001 -0.52828,-0.72155 -0.97708,-0.71301zM20.69141,49.8457c-0.3652,-0.00972 -0.70664,0.18047 -0.89062,0.49609l-1.0293,1.71484c-0.20264,0.30663 -0.22076,0.69969 -0.0472,1.02367c0.17356,0.32397 0.51083,0.52665 0.87837,0.52782c0.36753,0.00118 0.7061,-0.19934 0.88173,-0.52219l1.03125,-1.71484c0.1881,-0.30446 0.19917,-0.68622 0.02905,-1.00107c-0.17012,-0.31485 -0.49552,-0.5148 -0.85327,-0.52432zM25.19531,51.91016c-0.43798,-0.00004 -0.82502,0.2849 -0.95508,0.70313l-0.61914,1.90234c-0.11064,0.33983 -0.03157,0.71288 0.20743,0.9786c0.239,0.26572 0.60161,0.38374 0.95123,0.30959c0.34961,-0.07415 0.63311,-0.32919 0.74368,-0.66905l0.61914,-1.90234c0.10394,-0.30546 0.05412,-0.6423 -0.13379,-0.9046c-0.18791,-0.2623 -0.49082,-0.41782 -0.81348,-0.41767zM30.04492,52.90234c-0.51248,0.01467 -0.93086,0.4145 -0.96875,0.92578l-0.17578,1.99219c-0.03769,0.35927 0.12129,0.71094 0.4159,0.91998c0.29461,0.20904 0.67905,0.24296 1.00572,0.08874c0.32666,-0.15422 0.54477,-0.47262 0.57057,-0.83294l0.17578,-1.99219c0.02933,-0.28645 -0.06623,-0.57164 -0.26222,-0.78259c-0.19599,-0.21095 -0.47339,-0.32719 -0.76122,-0.31897z"></path></g></g></svg>